<svg xmlns="http://www.w3.org/2000/svg" viewBox="0 0 1254 1254" width="1024" height="1024">
<defs><filter id="shadow" x="-20%" y="-20%" width="140%" height="140%"><feDropShadow dx="0" dy="18" stdDeviation="22" flood-color="#000" flood-opacity="0.12"/></filter></defs>
<rect x="80" y="80" width="1094" height="1094" rx="145" fill="#fff" filter="url(#shadow)"/>
<rect x="80" y="80" width="1094" height="1094" rx="145" fill="none" stroke="#f2f2f2" stroke-width="3"/>
<path d="M 351.0 840.0 L 348.0 837.0 L 345.0 839.0 L 340.0 838.0 L 324.0 822.0 L 304.0 832.0 L 294.0 842.0 L 294.0 848.0 L 298.0 853.0 L 306.0 856.0 L 320.0 856.0 L 332.0 853.0 L 350.0 844.0 Z" fill="#07d4c8"/>
<path d="M 457.0 795.0 L 453.0 796.0 L 453.0 790.0 L 443.0 786.0 L 444.0 784.0 L 440.0 777.0 L 437.0 779.0 L 428.0 778.0 L 426.0 781.0 L 419.0 781.0 L 342.0 812.0 L 336.0 818.0 L 330.0 818.0 L 328.0 820.0 L 329.0 825.0 L 341.0 837.0 L 349.0 836.0 L 353.0 843.0 L 355.0 840.0 L 357.0 841.0 L 398.0 820.0 Z" fill="#05c6ea"/>
<path d="M 474.0 742.0 L 459.0 735.0 L 452.0 728.0 L 454.0 726.0 L 451.0 724.0 L 452.0 721.0 L 444.0 723.0 L 439.0 721.0 L 422.0 725.0 L 420.0 728.0 L 418.0 726.0 L 361.0 743.0 L 359.0 746.0 L 347.0 748.0 L 346.0 781.0 L 344.0 786.0 L 336.0 793.0 L 340.0 796.0 L 402.0 771.0 L 455.0 755.0 L 456.0 752.0 L 459.0 754.0 L 470.0 751.0 L 475.0 746.0 Z" fill="#0b62c0"/>
<path d="M 531.0 769.0 L 522.0 755.0 L 515.0 753.0 L 446.0 772.0 L 441.0 780.0 L 445.0 787.0 L 452.0 788.0 L 459.0 795.0 L 531.0 772.0 Z" fill="#0b62c0"/>
<path d="M 562.0 728.0 L 562.0 724.0 L 553.0 713.0 L 554.0 710.0 L 547.0 707.0 L 551.0 703.0 L 489.0 711.0 L 453.0 720.0 L 455.0 728.0 L 462.0 735.0 L 464.0 734.0 L 474.0 740.0 L 477.0 748.0 L 551.0 733.0 Z" fill="#2b54fa"/>
<path d="M 583.0 742.0 L 577.0 740.0 L 536.0 748.0 L 524.0 753.0 L 523.0 756.0 L 530.0 764.0 L 532.0 771.0 L 538.0 771.0 L 582.0 760.0 L 584.0 758.0 L 582.0 756.0 L 584.0 753.0 Z" fill="#2b54fa"/>
<path d="M 643.0 701.0 L 636.0 699.0 L 635.0 696.0 L 606.0 697.0 L 557.0 702.0 L 553.0 708.0 L 555.0 710.0 L 554.0 713.0 L 564.0 724.0 L 563.0 727.0 L 568.0 730.0 L 571.0 728.0 L 635.0 721.0 L 643.0 713.0 L 640.0 709.0 L 640.0 704.0 Z" fill="#573bfc"/>
<path d="M 631.0 733.0 L 586.0 739.0 L 583.0 741.0 L 585.0 747.0 L 583.0 756.0 L 587.0 759.0 L 627.0 751.0 L 632.0 743.0 L 629.0 737.0 Z" fill="#573bfc"/>
<path d="M 640.0 717.0 L 642.0 719.0 L 720.0 714.0 L 726.0 695.0 L 644.0 695.0 L 642.0 698.0 L 645.0 701.0 L 641.0 704.0 L 643.0 706.0 L 641.0 709.0 L 644.0 713.0 Z" fill="#9230fc"/>
<path d="M 696.0 727.0 L 638.0 731.0 L 630.0 737.0 L 633.0 742.0 L 630.0 748.0 L 632.0 750.0 L 686.0 742.0 L 686.0 737.0 L 690.0 737.0 L 694.0 732.0 L 693.0 729.0 Z" fill="#9230fc"/>
<path d="M 723.0 708.0 L 728.0 714.0 L 810.0 713.0 L 851.0 716.0 L 854.0 714.0 L 864.0 717.0 L 904.0 720.0 L 899.0 715.0 L 869.0 706.0 L 790.0 696.0 L 733.0 694.0 L 726.0 697.0 Z" fill="#d927fc"/>
<path d="M 795.0 725.0 L 793.0 723.0 L 708.0 725.0 L 696.0 728.0 L 693.0 735.0 L 687.0 739.0 L 702.0 740.0 L 743.0 735.0 L 788.0 733.0 L 789.0 729.0 Z" fill="#d927fc"/>
<path d="M 791.0 731.0 L 875.0 731.0 L 816.0 724.0 L 796.0 725.0 Z" fill="#f72aed"/>
<path d="M 1077.0 494.0 L 1071.0 486.0 L 1056.0 481.0 L 1019.0 483.0 L 976.0 490.0 L 974.0 488.0 L 999.0 445.0 L 1003.0 434.0 L 998.0 427.0 L 992.0 425.0 L 972.0 424.0 L 956.0 428.0 L 954.0 441.0 L 924.0 499.0 L 888.0 505.0 L 883.0 510.0 L 884.0 519.0 L 888.0 524.0 L 897.0 527.0 L 909.0 526.0 L 911.0 528.0 L 884.0 591.0 L 859.0 623.0 L 837.0 646.0 L 822.0 657.0 L 811.0 660.0 L 804.0 654.0 L 802.0 643.0 L 805.0 617.0 L 811.0 594.0 L 846.0 556.0 L 867.0 526.0 L 890.0 487.0 L 903.0 461.0 L 912.0 436.0 L 914.0 411.0 L 911.0 403.0 L 900.0 396.0 L 884.0 398.0 L 872.0 405.0 L 858.0 419.0 L 844.0 437.0 L 822.0 472.0 L 803.0 508.0 L 789.0 541.0 L 780.0 567.0 L 773.0 597.0 L 760.0 613.0 L 732.0 641.0 L 716.0 652.0 L 701.0 658.0 L 694.0 658.0 L 688.0 653.0 L 686.0 640.0 L 693.0 612.0 L 695.0 610.0 L 701.0 612.0 L 715.0 611.0 L 731.0 604.0 L 752.0 585.0 L 772.0 553.0 L 780.0 526.0 L 778.0 509.0 L 768.0 501.0 L 753.0 499.0 L 735.0 504.0 L 716.0 515.0 L 694.0 536.0 L 675.0 561.0 L 659.0 589.0 L 650.0 613.0 L 646.0 634.0 L 649.0 658.0 L 659.0 671.0 L 667.0 675.0 L 681.0 678.0 L 703.0 676.0 L 724.0 667.0 L 737.0 658.0 L 767.0 627.0 L 769.0 629.0 L 767.0 638.0 L 768.0 657.0 L 775.0 671.0 L 789.0 679.0 L 808.0 680.0 L 824.0 675.0 L 838.0 666.0 L 852.0 653.0 L 876.0 624.0 L 878.0 626.0 L 875.0 657.0 L 878.0 671.0 L 884.0 682.0 L 896.0 692.0 L 909.0 696.0 L 926.0 696.0 L 942.0 692.0 L 966.0 678.0 L 990.0 654.0 L 1008.0 627.0 L 1023.0 592.0 L 1023.0 585.0 L 1021.0 583.0 L 1016.0 584.0 L 1000.0 613.0 L 983.0 637.0 L 955.0 665.0 L 934.0 676.0 L 926.0 677.0 L 916.0 672.0 L 913.0 663.0 L 913.0 654.0 L 921.0 617.0 L 940.0 564.0 L 960.0 520.0 L 964.0 516.0 L 1030.0 502.0 L 1053.0 499.0 L 1077.0 501.0 Z" fill="#111111"/>
<path d="M 600.0 407.0 L 586.0 402.0 L 549.0 404.0 L 508.0 415.0 L 392.0 453.0 L 326.0 471.0 L 295.0 476.0 L 280.0 475.0 L 271.0 471.0 L 265.0 471.0 L 260.0 475.0 L 257.0 483.0 L 257.0 493.0 L 261.0 503.0 L 267.0 509.0 L 285.0 517.0 L 312.0 518.0 L 345.0 511.0 L 376.0 501.0 L 516.0 443.0 L 549.0 432.0 L 551.0 434.0 L 418.0 557.0 L 345.0 630.0 L 270.0 713.0 L 227.0 768.0 L 205.0 804.0 L 201.0 816.0 L 200.0 828.0 L 203.0 837.0 L 208.0 843.0 L 219.0 848.0 L 242.0 846.0 L 327.0 801.0 L 403.0 770.0 L 401.0 768.0 L 404.0 765.0 L 403.0 761.0 L 415.0 739.0 L 413.0 734.0 L 407.0 732.0 L 425.0 726.0 L 366.0 742.0 L 316.0 760.0 L 282.0 775.0 L 280.0 773.0 L 371.0 671.0 L 584.0 457.0 L 598.0 440.0 L 605.0 427.0 L 606.0 417.0 Z" fill="#111111"/>
<path d="M 672.0 503.0 L 659.0 499.0 L 643.0 499.0 L 633.0 502.0 L 636.0 510.0 L 636.0 522.0 L 627.0 557.0 L 619.0 577.0 L 604.0 607.0 L 586.0 635.0 L 571.0 654.0 L 555.0 667.0 L 551.0 663.0 L 553.0 642.0 L 584.0 552.0 L 587.0 535.0 L 585.0 528.0 L 581.0 524.0 L 570.0 521.0 L 550.0 524.0 L 535.0 533.0 L 535.0 537.0 L 540.0 537.0 L 544.0 541.0 L 544.0 544.0 L 521.0 605.0 L 512.0 649.0 L 514.0 667.0 L 522.0 680.0 L 530.0 685.0 L 541.0 688.0 L 562.0 686.0 L 588.0 670.0 L 609.0 648.0 L 639.0 605.0 L 665.0 556.0 L 678.0 520.0 L 677.0 508.0 Z" fill="#111111"/>
</svg>